<?xml version="1.0" encoding="utf-8"?>
<!-- Generator: Adobe Illustrator 24.1.3, SVG Export Plug-In . SVG Version: 6.00 Build 0)  -->
<svg version="1.1" id="Layer_1" xmlns="http://www.w3.org/2000/svg" xmlns:xlink="http://www.w3.org/1999/xlink" x="0px" y="0px"
	 viewBox="0 0 200 400" style="enable-background:new 0 0 200 400;" xml:space="preserve">
<style type="text/css">
	.st0{opacity:0.49;fill-rule:evenodd;clip-rule:evenodd;fill:#666666;stroke:#000000;stroke-width:0.25;stroke-miterlimit:10;}
	.st1{opacity:0.5;fill-rule:evenodd;clip-rule:evenodd;fill:#666666;stroke:#000000;stroke-width:0.25;stroke-miterlimit:10;}
	.st2{opacity:0.42;fill-rule:evenodd;clip-rule:evenodd;fill:#00A8BF;stroke:#000000;stroke-width:0.25;stroke-miterlimit:10;}
</style>
<path class="st0" d="M177.43,146.63H25.13c-2.76,0-5-2.24-5-5v-90c0-2.76,2.24-5,5-5h152.3c2.76,0,5,2.24,5,5v90
	C182.43,144.4,180.19,146.63,177.43,146.63z"/>
<path class="st1" d="M88.64,277.12H11.75c-2.76,0-5-2.24-5-5v-87.56c0-2.76,2.24-5,5-5h76.89c2.76,0,5,2.24,5,5v87.56
	C93.64,274.88,91.4,277.12,88.64,277.12z"/>
<path class="st1" d="M188.44,277.12h-76.89c-2.76,0-5-2.24-5-5v-87.56c0-2.76,2.24-5,5-5h76.89c2.76,0,5,2.24,5,5v87.56
	C193.44,274.88,191.2,277.12,188.44,277.12z"/>
<path class="st1" d="M88.64,386H11.75c-2.76,0-5-2.24-5-5v-87.56c0-2.76,2.24-5,5-5h76.89c2.76,0,5,2.24,5,5V381
	C93.64,383.76,91.4,386,88.64,386z"/>
<path class="st1" d="M188.44,386h-76.89c-2.76,0-5-2.24-5-5v-87.56c0-2.76,2.24-5,5-5h76.89c2.76,0,5,2.24,5,5V381
	C193.44,383.76,191.2,386,188.44,386z"/>
<rect class="st2" width="200" height="17.07"/>
</svg>
