<?xml version="1.0" encoding="utf-8"?>
<!-- Generator: Adobe Illustrator 24.1.3, SVG Export Plug-In . SVG Version: 6.00 Build 0)  -->
<svg version="1.1" id="Layer_1" xmlns="http://www.w3.org/2000/svg" xmlns:xlink="http://www.w3.org/1999/xlink" x="0px" y="0px"
	 viewBox="0 0 600 431" style="enable-background:new 0 0 600 431;" xml:space="preserve">
<style type="text/css">
	.st0{opacity:0.42;}
	.st1{fill:#556EE6;}
	.st2{fill:#DADBDB;}
	.st3{opacity:0.5;fill-rule:evenodd;clip-rule:evenodd;fill:#556EE6;}
	.st4{opacity:0.5;fill-rule:evenodd;clip-rule:evenodd;fill:#9CBDBB;}
	.st5{fill-rule:evenodd;clip-rule:evenodd;fill:#9CBDBB;}
	.st6{fill-rule:evenodd;clip-rule:evenodd;fill:#E66868;}
	.st7{fill:none;stroke:#000000;stroke-miterlimit:10;}
</style>
<g class="st0">
	<rect class="st1" width="600" height="42"/>
</g>
<path class="st2" d="M471,205H150c-2.76,0-5-2.24-5-5V80c0-2.76,2.24-5,5-5h321c2.76,0,5,2.24,5,5v120
	C476,202.76,473.76,205,471,205z"/>
<path class="st3" d="M458.5,95h-297c-1.38,0-2.5-1.12-2.5-2.5v-6c0-1.38,1.12-2.5,2.5-2.5h297c1.38,0,2.5,1.12,2.5,2.5v6
	C461,93.88,459.88,95,458.5,95z"/>
<path class="st4" d="M302.5,109h-141c-1.38,0-2.5-1.12-2.5-2.5l0,0c0-1.38,1.12-2.5,2.5-2.5h141c1.38,0,2.5,1.12,2.5,2.5l0,0
	C305,107.88,303.88,109,302.5,109z"/>
<path class="st4" d="M375.5,126h-141c-1.38,0-2.5-1.12-2.5-2.5l0,0c0-1.38,1.12-2.5,2.5-2.5h141c1.38,0,2.5,1.12,2.5,2.5l0,0
	C378,124.88,376.88,126,375.5,126z"/>
<path class="st4" d="M467.5,143h-141c-1.38,0-2.5-1.12-2.5-2.5l0,0c0-1.38,1.12-2.5,2.5-2.5h141c1.38,0,2.5,1.12,2.5,2.5l0,0
	C470,141.88,468.88,143,467.5,143z"/>
<circle class="st5" cx="310" cy="243" r="2"/>
<circle class="st5" cx="302" cy="243" r="2"/>
<circle class="st6" cx="318" cy="243" r="2"/>
<path class="st2" d="M461,395H140c-2.76,0-5-2.24-5-5V270c0-2.76,2.24-5,5-5h321c2.76,0,5,2.24,5,5v120
	C466,392.76,463.76,395,461,395z"/>
<path class="st3" d="M450.5,281h-297c-1.38,0-2.5-1.12-2.5-2.5v-6c0-1.38,1.12-2.5,2.5-2.5h297c1.38,0,2.5,1.12,2.5,2.5v6
	C453,279.88,451.88,281,450.5,281z"/>
<path class="st4" d="M370.25,314h-141c-1.38,0-2.5-1.12-2.5-2.5v-17.44c0-1.38,1.12-2.5,2.5-2.5h141c1.38,0,2.5,1.12,2.5,2.5v17.44
	C372.75,312.88,371.63,314,370.25,314z"/>
<path class="st4" d="M287.5,342h-141c-1.38,0-2.5-1.12-2.5-2.5l0,0c0-1.38,1.12-2.5,2.5-2.5h141c1.38,0,2.5,1.12,2.5,2.5l0,0
	C290,340.88,288.88,342,287.5,342z"/>
<path class="st4" d="M287.5,356h-141c-1.38,0-2.5-1.12-2.5-2.5l0,0c0-1.38,1.12-2.5,2.5-2.5h141c1.38,0,2.5,1.12,2.5,2.5l0,0
	C290,354.88,288.88,356,287.5,356z"/>
<path class="st4" d="M287.5,370h-141c-1.38,0-2.5-1.12-2.5-2.5l0,0c0-1.38,1.12-2.5,2.5-2.5h141c1.38,0,2.5,1.12,2.5,2.5l0,0
	C290,368.88,288.88,370,287.5,370z"/>
<path class="st4" d="M456.5,342h-141c-1.38,0-2.5-1.12-2.5-2.5l0,0c0-1.38,1.12-2.5,2.5-2.5h141c1.38,0,2.5,1.12,2.5,2.5l0,0
	C459,340.88,457.88,342,456.5,342z"/>
<path class="st4" d="M456.5,356h-141c-1.38,0-2.5-1.12-2.5-2.5l0,0c0-1.38,1.12-2.5,2.5-2.5h141c1.38,0,2.5,1.12,2.5,2.5l0,0
	C459,354.88,457.88,356,456.5,356z"/>
<path class="st4" d="M456.5,370h-141c-1.38,0-2.5-1.12-2.5-2.5l0,0c0-1.38,1.12-2.5,2.5-2.5h141c1.38,0,2.5,1.12,2.5,2.5l0,0
	C459,368.88,457.88,370,456.5,370z"/>
<rect x="120" y="272" class="st2" width="15" height="104"/>
<rect x="466" y="272" class="st2" width="15" height="104"/>
<line class="st7" x1="498.5" y1="353.5" x2="498.5" y2="353.5"/>
</svg>
